<?xml version="1.0" standalone="no"?>
<!DOCTYPE svg PUBLIC "-//W3C//DTD SVG 20010904//EN"
 "http://www.w3.org/TR/2001/REC-SVG-20010904/DTD/svg10.dtd">
<svg version="1.0" xmlns="http://www.w3.org/2000/svg"
 width="700.000000pt" height="700.000000pt" viewBox="0 0 700.000000 700.000000"
 preserveAspectRatio="xMidYMid meet">
<metadata>
Created by potrace 1.14, written by Peter Selinger 2001-2017
</metadata>
<g transform="translate(0.000000,700.000000) scale(0.100000,-0.100000)"
fill="#000000" stroke="none">
<path d="M165 5678 c-42 -9 -96 -44 -123 -79 -59 -77 -53 -166 18 -269 10 -14
89 -142 176 -285 167 -277 196 -315 259 -348 40 -21 44 -21 1130 -22 600 -1
1113 -5 1140 -9 76 -10 242 -56 317 -87 203 -84 383 -219 533 -399 246 -298
511 -447 895 -505 63 -9 2377 -6 2401 4 61 24 95 86 85 156 -9 54 -88 212
-153 304 -101 141 -259 283 -408 366 -108 61 -274 124 -370 140 -11 2 -49 9
-85 16 -48 9 -322 13 -1050 14 -542 1 -1007 5 -1035 9 -125 16 -244 47 -350
91 -74 30 -97 42 -176 87 -50 28 -176 124 -228 172 -29 28 -88 92 -130 141
-132 156 -233 244 -373 326 -162 95 -335 153 -524 175 -80 10 -1904 11 -1949
2z"/>
<path d="M6446 3193 c-1 -2 -434 -3 -962 -3 -1001 -1 -1006 -1 -1174 -45 -251
-65 -516 -239 -678 -445 -67 -84 -227 -235 -307 -288 -174 -116 -358 -187
-568 -218 -23 -4 -532 -7 -1132 -8 -1035 -2 -1092 -3 -1128 -21 -52 -25 -103
-87 -195 -240 -44 -71 -128 -210 -188 -309 -98 -162 -109 -183 -110 -230 -2
-61 14 -103 57 -145 67 -67 8 -64 1019 -64 503 0 944 1 980 3 257 13 550 130
755 303 78 66 95 84 187 193 205 243 436 395 704 463 78 20 94 23 184 37 25 4
488 8 1030 9 542 1 1010 5 1040 10 84 11 226 49 315 84 313 121 594 398 705
694 39 104 2 195 -87 213 -30 6 -442 12 -447 7z"/>
</g>
</svg>
