<svg width="250" height="250" viewBox="0 0 250 250" fill="none" xmlns="http://www.w3.org/2000/svg">
<path d="M129.321 101C137.793 111.875 151.271 119 166.289 119H244.845C248.311 119 250.622 116 249.852 112.625C243.69 95.3748 226.747 82.9999 206.338 82.9999H144.34C129.321 82.9999 115.844 75.8749 107.372 64.9999C98.8998 54.125 85.422 47 70.4042 47H7.63608C1.85989 47 -1.9909 53 1.08974 57.875L14.1825 79.2499C15.7228 81.4999 18.0333 82.9999 20.7288 82.9999H92.7385C107.372 82.9999 120.849 90.1248 129.321 101Z" fill="#00A796"/>
<path d="M129.321 154C137.793 143.125 151.271 136 166.289 136H244.845C248.311 136 250.622 139 249.852 142.375C243.69 159.625 226.747 172 206.338 172H144.34C129.321 172 115.844 179.125 107.372 190C98.8998 200.875 85.422 208 70.4042 208H7.63608C1.85989 208 -1.9909 202 1.08974 197.125L14.1825 175.75C15.7228 173.5 18.0333 172 20.7288 172H92.7385C107.372 172 120.849 164.875 129.321 154Z" fill="#007CBE"/>
</svg>
