<svg width="24" height="24" viewBox="0 0 24 24" fill="none" xmlns="http://www.w3.org/2000/svg">
<path d="M9.5 10C9.5 9.80109 9.57902 9.61032 9.71967 9.46967C9.86032 9.32902 10.0511 9.25 10.25 9.25H17.75C17.9489 9.25 18.1397 9.32902 18.2803 9.46967C18.421 9.61032 18.5 9.80109 18.5 10C18.5 10.1989 18.421 10.3897 18.2803 10.5303C18.1397 10.671 17.9489 10.75 17.75 10.75H10.25C10.0511 10.75 9.86032 10.671 9.71967 10.5303C9.57902 10.3897 9.5 10.1989 9.5 10ZM10.25 13.75H17.75C17.9489 13.75 18.1397 13.671 18.2803 13.5303C18.421 13.3897 18.5 13.1989 18.5 13C18.5 12.8011 18.421 12.6103 18.2803 12.4697C18.1397 12.329 17.9489 12.25 17.75 12.25H10.25C10.0511 12.25 9.86032 12.329 9.71967 12.4697C9.57902 12.6103 9.5 12.8011 9.5 13C9.5 13.1989 9.57902 13.3897 9.71967 13.5303C9.86032 13.671 10.0511 13.75 10.25 13.75ZM23 5.5V16.75C23 17.3467 22.7629 17.919 22.341 18.341C21.919 18.7629 21.3467 19 20.75 19H4.25C3.65505 19 3.08431 18.7644 2.66264 18.3446C2.24098 17.9249 2.00273 17.3553 2 16.7603V7.75C2 7.55109 2.07902 7.36032 2.21967 7.21967C2.36032 7.07902 2.55109 7 2.75 7C2.94891 7 3.13968 7.07902 3.28033 7.21967C3.42098 7.36032 3.5 7.55109 3.5 7.75V16.75C3.5 16.9489 3.57902 17.1397 3.71967 17.2803C3.86032 17.421 4.05109 17.5 4.25 17.5C4.44891 17.5 4.63968 17.421 4.78033 17.2803C4.92098 17.1397 5 16.9489 5 16.75V5.5C5 5.10218 5.15804 4.72064 5.43934 4.43934C5.72064 4.15804 6.10218 4 6.5 4H21.5C21.8978 4 22.2794 4.15804 22.5607 4.43934C22.842 4.72064 23 5.10218 23 5.5ZM21.5 5.5H6.5V16.75C6.50037 17.0055 6.45693 17.2592 6.37156 17.5H20.75C20.9489 17.5 21.1397 17.421 21.2803 17.2803C21.421 17.1397 21.5 16.9489 21.5 16.75V5.5Z" fill="#062F54"/>
</svg>