<svg width="24" height="24" viewBox="0 0 24 24" fill="none" xmlns="http://www.w3.org/2000/svg">
<path d="M22.25 3H15.5C14.9178 3 14.3437 3.13554 13.8229 3.3959C13.3022 3.65625 12.8493 4.03426 12.5 4.5C12.1507 4.03426 11.6978 3.65625 11.1771 3.3959C10.6563 3.13554 10.0822 3 9.5 3H2.75C2.55109 3 2.36032 3.07902 2.21967 3.21967C2.07902 3.36032 2 3.55109 2 3.75V17.25C2 17.4489 2.07902 17.6397 2.21967 17.7803C2.36032 17.921 2.55109 18 2.75 18H9.5C10.0967 18 10.669 18.2371 11.091 18.659C11.5129 19.081 11.75 19.6533 11.75 20.25C11.75 20.4489 11.829 20.6397 11.9697 20.7803C12.1103 20.921 12.3011 21 12.5 21C12.6989 21 12.8897 20.921 13.0303 20.7803C13.171 20.6397 13.25 20.4489 13.25 20.25C13.25 19.6533 13.4871 19.081 13.909 18.659C14.331 18.2371 14.9033 18 15.5 18H22.25C22.4489 18 22.6397 17.921 22.7803 17.7803C22.921 17.6397 23 17.4489 23 17.25V3.75C23 3.55109 22.921 3.36032 22.7803 3.21967C22.6397 3.07902 22.4489 3 22.25 3ZM9.5 16.5H3.5V4.5H9.5C10.0967 4.5 10.669 4.73705 11.091 5.15901C11.5129 5.58097 11.75 6.15326 11.75 6.75V17.25C11.1015 16.762 10.3116 16.4987 9.5 16.5ZM21.5 16.5H15.5C14.6884 16.4987 13.8985 16.762 13.25 17.25V6.75C13.25 6.15326 13.4871 5.58097 13.909 5.15901C14.331 4.73705 14.9033 4.5 15.5 4.5H21.5V16.5ZM15.5 6.75H19.25C19.4489 6.75 19.6397 6.82902 19.7803 6.96967C19.921 7.11032 20 7.30109 20 7.5C20 7.69891 19.921 7.88968 19.7803 8.03033C19.6397 8.17098 19.4489 8.25 19.25 8.25H15.5C15.3011 8.25 15.1103 8.17098 14.9697 8.03033C14.829 7.88968 14.75 7.69891 14.75 7.5C14.75 7.30109 14.829 7.11032 14.9697 6.96967C15.1103 6.82902 15.3011 6.75 15.5 6.75ZM20 10.5C20 10.6989 19.921 10.8897 19.7803 11.0303C19.6397 11.171 19.4489 11.25 19.25 11.25H15.5C15.3011 11.25 15.1103 11.171 14.9697 11.0303C14.829 10.8897 14.75 10.6989 14.75 10.5C14.75 10.3011 14.829 10.1103 14.9697 9.96967C15.1103 9.82902 15.3011 9.75 15.5 9.75H19.25C19.4489 9.75 19.6397 9.82902 19.7803 9.96967C19.921 10.1103 20 10.3011 20 10.5ZM20 13.5C20 13.6989 19.921 13.8897 19.7803 14.0303C19.6397 14.171 19.4489 14.25 19.25 14.25H15.5C15.3011 14.25 15.1103 14.171 14.9697 14.0303C14.829 13.8897 14.75 13.6989 14.75 13.5C14.75 13.3011 14.829 13.1103 14.9697 12.9697C15.1103 12.829 15.3011 12.75 15.5 12.75H19.25C19.4489 12.75 19.6397 12.829 19.7803 12.9697C19.921 13.1103 20 13.3011 20 13.5Z" fill="#062F54"/>
</svg>