<svg width="24" height="24" viewBox="0 0 24 24" fill="none" xmlns="http://www.w3.org/2000/svg">
<path d="M21.0004 12.2504C21.0004 12.4493 20.9214 12.6401 20.7807 12.7807C20.6401 12.9214 20.4493 13.0004 20.2504 13.0004H12.0004C11.8015 13.0004 11.6107 12.9214 11.4701 12.7807C11.3294 12.6401 11.2504 12.4493 11.2504 12.2504C11.2504 12.0515 11.3294 11.8607 11.4701 11.7201C11.6107 11.5794 11.8015 11.5004 12.0004 11.5004H20.2504C20.4493 11.5004 20.6401 11.5794 20.7807 11.7201C20.9214 11.8607 21.0004 12.0515 21.0004 12.2504ZM12.0004 7.00042H20.2504C20.4493 7.00042 20.6401 6.9214 20.7807 6.78075C20.9214 6.64009 21.0004 6.44933 21.0004 6.25042C21.0004 6.0515 20.9214 5.86074 20.7807 5.72009C20.6401 5.57943 20.4493 5.50042 20.2504 5.50042H12.0004C11.8015 5.50042 11.6107 5.57943 11.4701 5.72009C11.3294 5.86074 11.2504 6.0515 11.2504 6.25042C11.2504 6.44933 11.3294 6.64009 11.4701 6.78075C11.6107 6.9214 11.8015 7.00042 12.0004 7.00042ZM20.2504 17.5004H12.0004C11.8015 17.5004 11.6107 17.5794 11.4701 17.7201C11.3294 17.8607 11.2504 18.0515 11.2504 18.2504C11.2504 18.4493 11.3294 18.6401 11.4701 18.7807C11.6107 18.9214 11.8015 19.0004 12.0004 19.0004H20.2504C20.4493 19.0004 20.6401 18.9214 20.7807 18.7807C20.9214 18.6401 21.0004 18.4493 21.0004 18.2504C21.0004 18.0515 20.9214 17.8607 20.7807 17.7201C20.6401 17.5794 20.4493 17.5004 20.2504 17.5004ZM7.71979 4.21979L5.25042 6.6901L4.28104 5.71979C4.14031 5.57906 3.94944 5.5 3.75042 5.5C3.55139 5.5 3.36052 5.57906 3.21979 5.71979C3.07906 5.86052 3 6.05139 3 6.25042C3 6.44944 3.07906 6.64031 3.21979 6.78104L4.71979 8.28104C4.78945 8.35077 4.87216 8.40609 4.96321 8.44384C5.05426 8.48158 5.15186 8.50101 5.25042 8.50101C5.34898 8.50101 5.44657 8.48158 5.53762 8.44384C5.62867 8.40609 5.71139 8.35077 5.78104 8.28104L8.78104 5.28104C8.92177 5.14031 9.00083 4.94944 9.00083 4.75042C9.00083 4.55139 8.92177 4.36052 8.78104 4.21979C8.64031 4.07906 8.44944 4 8.25042 4C8.05139 4 7.86052 4.07906 7.71979 4.21979ZM7.71979 10.2198L5.25042 12.6901L4.28104 11.7198C4.14031 11.5791 3.94944 11.5 3.75042 11.5C3.55139 11.5 3.36052 11.5791 3.21979 11.7198C3.07906 11.8605 3 12.0514 3 12.2504C3 12.349 3.01941 12.4465 3.05712 12.5376C3.09483 12.6286 3.15011 12.7114 3.21979 12.781L4.71979 14.281C4.78945 14.3508 4.87216 14.4061 4.96321 14.4438C5.05426 14.4816 5.15186 14.501 5.25042 14.501C5.34898 14.501 5.44657 14.4816 5.53762 14.4438C5.62867 14.4061 5.71139 14.3508 5.78104 14.281L8.78104 11.281C8.92177 11.1403 9.00083 10.9494 9.00083 10.7504C9.00083 10.5514 8.92177 10.3605 8.78104 10.2198C8.64031 10.0791 8.44944 10 8.25042 10C8.05139 10 7.86052 10.0791 7.71979 10.2198ZM7.71979 16.2198L5.25042 18.6901L4.28104 17.7198C4.21136 17.6501 4.12863 17.5948 4.03759 17.5571C3.94654 17.5194 3.84896 17.5 3.75042 17.5C3.65187 17.5 3.55429 17.5194 3.46324 17.5571C3.3722 17.5948 3.28947 17.6501 3.21979 17.7198C3.15011 17.7895 3.09483 17.8722 3.05712 17.9632C3.01941 18.0543 3 18.1519 3 18.2504C3 18.349 3.01941 18.4465 3.05712 18.5376C3.09483 18.6286 3.15011 18.7114 3.21979 18.781L4.71979 20.281C4.78945 20.3508 4.87216 20.4061 4.96321 20.4438C5.05426 20.4816 5.15186 20.501 5.25042 20.501C5.34898 20.501 5.44657 20.4816 5.53762 20.4438C5.62867 20.4061 5.71139 20.3508 5.78104 20.281L8.78104 17.281C8.92177 17.1403 9.00083 16.9494 9.00083 16.7504C9.00083 16.5514 8.92177 16.3605 8.78104 16.2198C8.64031 16.0791 8.44944 16 8.25042 16C8.05139 16 7.86052 16.0791 7.71979 16.2198Z" fill="#007CBE"/>
</svg>