<svg viewBox="0 0 16 16" width="16" height="16" fill="none" xmlns="http://www.w3.org/2000/svg">
<path d="M14.0004 7.6669C14.0004 7.79951 13.9477 7.92669 13.8539 8.02046C13.7602 8.11423 13.633 8.1669 13.5004 8.1669H3.70727L7.35414 11.8132C7.4006 11.8596 7.43745 11.9148 7.46259 11.9755C7.48773 12.0362 7.50067 12.1012 7.50067 12.1669C7.50067 12.2326 7.48773 12.2977 7.46259 12.3584C7.43745 12.419 7.4006 12.4742 7.35414 12.5207C7.30769 12.5671 7.25254 12.604 7.19184 12.6291C7.13115 12.6542 7.06609 12.6672 7.00039 12.6672C6.9347 12.6672 6.86964 12.6542 6.80895 12.6291C6.74825 12.604 6.6931 12.5671 6.64664 12.5207L2.14664 8.02065C2.10016 7.97422 2.06328 7.91907 2.03811 7.85837C2.01295 7.79768 2 7.73261 2 7.6669C2 7.6012 2.01295 7.53613 2.03811 7.47543C2.06328 7.41473 2.10016 7.35959 2.14664 7.31315L6.64664 2.81315C6.74046 2.71933 6.86771 2.66663 7.00039 2.66663C7.13308 2.66663 7.26032 2.71933 7.35414 2.81315C7.44796 2.90697 7.50067 3.03422 7.50067 3.1669C7.50067 3.29959 7.44796 3.42683 7.35414 3.52065L3.70727 7.1669H13.5004C13.633 7.1669 13.7602 7.21958 13.8539 7.31335C13.9477 7.40712 14.0004 7.5343 14.0004 7.6669Z" fill="currentColor"/>
</svg>
