<svg xmlns="http://www.w3.org/2000/svg" viewBox="0 0 16 16" width="16" height="16" fill="none">
  <path d="M13.8538 8.02072L9.35375 12.5207C9.25993 12.6145 9.13268 12.6672 9 12.6672C8.86732 12.6672 8.74007 12.6145 8.64625 12.5207C8.55243 12.4269 8.49972 12.2996 8.49972 12.167C8.49972 12.0343 8.55243 11.907 8.64625 11.8132L12.2931 8.16697H2.5C2.36739 8.16697 2.24021 8.11429 2.14645 8.02052C2.05268 7.92675 2 7.79957 2 7.66697C2 7.53436 2.05268 7.40718 2.14645 7.31341C2.24021 7.21964 2.36739 7.16697 2.5 7.16697H12.2931L8.64625 3.52071C8.55243 3.42689 8.49972 3.29965 8.49972 3.16697C8.49972 3.03428 8.55243 2.90704 8.64625 2.81322C8.74007 2.71939 8.86732 2.66669 9 2.66669C9.13268 2.66669 9.25993 2.71939 9.35375 2.81322L13.8538 7.31321C13.9002 7.35965 13.9371 7.4148 13.9623 7.47549C13.9874 7.53619 14.0004 7.60126 14.0004 7.66697C14.0004 7.73267 13.9874 7.79774 13.9623 7.85844C13.9371 7.91913 13.9002 7.97428 13.8538 8.02072Z" fill="#062F54"/>
</svg>
