<svg xmlns="http://www.w3.org/2000/svg" viewBox="0 0 24 24" fill="none"><path d="M22.25 3H15.5a3.75 3.75 0 0 0-3 1.5 3.75 3.75 0 0 0-3-1.5H2.75a.75.75 0 0 0-.75.75v13.5a.75.75 0 0 0 .75.75H9.5a2.25 2.25 0 0 1 2.25 2.25.75.75 0 1 0 1.5 0A2.25 2.25 0 0 1 15.5 18h6.75a.75.75 0 0 0 .75-.75V3.75a.75.75 0 0 0-.75-.75ZM9.5 16.5h-6v-12h6a2.25 2.25 0 0 1 2.25 2.25v10.5a3.732 3.732 0 0 0-2.25-.75Zm12 0h-6a3.732 3.732 0 0 0-2.25.75V6.75A2.25 2.25 0 0 1 15.5 4.5h6v12Zm-6-9.75h3.75a.75.75 0 1 1 0 1.5H15.5a.75.75 0 1 1 0-1.5ZM20 10.5a.75.75 0 0 1-.75.75H15.5a.75.75 0 1 1 0-1.5h3.75a.75.75 0 0 1 .75.75Zm0 3a.75.75 0 0 1-.75.75H15.5a.75.75 0 1 1 0-1.5h3.75a.75.75 0 0 1 .75.75Z" fill="currentColor"/></svg>
