<svg viewBox="0 0 24 24" fill="none" xmlns="http://www.w3.org/2000/svg">
<path d="M7.21993 12.781L14.7199 20.281C14.7896 20.3507 14.8723 20.406 14.9634 20.4437C15.0544 20.4814 15.152 20.5008 15.2506 20.5008C15.3491 20.5008 15.4467 20.4814 15.5377 20.4437C15.6288 20.406 15.7115 20.3507 15.7812 20.281C15.8509 20.2114 15.9061 20.1286 15.9439 20.0376C15.9816 19.9465 16.001 19.849 16.001 19.7504C16.001 19.6519 15.9816 19.5543 15.9439 19.4632C15.9061 19.3722 15.8509 19.2895 15.7812 19.2198L8.81087 12.2504L15.7812 5.28104C15.9219 5.14031 16.001 4.94944 16.001 4.75042C16.001 4.55139 15.9219 4.36052 15.7812 4.21979C15.6405 4.07906 15.4496 4 15.2506 4C15.0515 4 14.8607 4.07906 14.7199 4.21979L7.21993 11.7198C7.1502 11.7894 7.09488 11.8722 7.05714 11.9632C7.0194 12.0543 6.99997 12.1519 6.99997 12.2504C6.99997 12.349 7.0194 12.4466 7.05714 12.5376C7.09488 12.6287 7.1502 12.7114 7.21993 12.781Z" fill="currentColor"/>
</svg>
