<svg xmlns="http://www.w3.org/2000/svg" viewBox="0 0 24 24" fill="none"><path d="M20 6h-3.75v-.75A2.25 2.25 0 0 0 14 3H9.5a2.25 2.25 0 0 0-2.25 2.25V6H3.5A1.5 1.5 0 0 0 2 7.5v12A1.5 1.5 0 0 0 3.5 21H20a1.5 1.5 0 0 0 1.5-1.5v-12A1.5 1.5 0 0 0 20 6ZM8.75 5.25a.75.75 0 0 1 .75-.75H14a.75.75 0 0 1 .75.75V6h-6v-.75ZM20 7.5v3.9a17.257 17.257 0 0 1-16.5.001V7.5H20Zm0 12H3.5v-6.409a18.772 18.772 0 0 0 16.5 0V19.5ZM9.5 11.25a.75.75 0 0 1 .75-.75h3a.75.75 0 1 1 0 1.5h-3a.75.75 0 0 1-.75-.75Z" fill="currentColor"/></svg>
