<svg xmlns="http://www.w3.org/2000/svg" viewBox="0 0 24 24" fill="none"><path d="M21.01 6.22a.75.75 0 0 0-1.204-.27l-3.778 3.487-1.615-.347-.347-1.616 3.486-3.778a.749.749 0 0 0-.27-1.203 6.75 6.75 0 0 0-9.28 6.258c-.002.934.19 1.857.562 2.713l-5.645 4.881c-.014.011-.027.024-.04.037a3 3 0 1 0 4.28 4.203l4.88-5.646A6.75 6.75 0 0 0 21.5 8.75a6.71 6.71 0 0 0-.491-2.53Zm-6.259 7.781a5.262 5.262 0 0 1-2.537-.656.75.75 0 0 0-.93.166l-5.241 6.07a1.5 1.5 0 0 1-2.12-2.121l6.064-5.24a.75.75 0 0 0 .166-.93 5.25 5.25 0 0 1 5.471-7.717L12.7 6.743a.75.75 0 0 0-.182.665l.53 2.468a.75.75 0 0 0 .576.576l2.47.53a.75.75 0 0 0 .666-.181l3.17-2.925A5.256 5.256 0 0 1 14.751 14Z" fill="currentColor"/></svg>
