<svg xmlns="http://www.w3.org/2000/svg" viewBox="0 0 24 24" fill="none"><path d="M19.54 2.633h-2.25v-.75a.75.75 0 1 0-1.5 0v.75h-7.5v-.75a.75.75 0 1 0-1.5 0v.75H4.54a1.5 1.5 0 0 0-1.5 1.5v15a1.5 1.5 0 0 0 1.5 1.5h15a1.5 1.5 0 0 0 1.5-1.5v-15a1.5 1.5 0 0 0-1.5-1.5Zm0 16.5h-15v-15h2.25v.75a.75.75 0 0 0 1.5 0v-.75h7.5v.75a.75.75 0 1 0 1.5 0v-.75h2.25v15Zm-2.942-8.846L13.8 10.07l-1.072-2.484a.75.75 0 0 0-1.378 0L10.28 10.07l-2.798.217a.75.75 0 0 0-.419 1.325l2.111 1.743-.643 2.598a.75.75 0 0 0 1.108.826l2.401-1.413 2.401 1.413a.75.75 0 0 0 1.109-.826l-.644-2.598 2.112-1.743a.75.75 0 0 0-.42-1.325Zm-3.01 2.212a.75.75 0 0 0-.252.759l.328 1.324-1.244-.733a.75.75 0 0 0-.761 0l-1.244.732.328-1.323a.75.75 0 0 0-.251-.759l-1.042-.86 1.396-.108a.75.75 0 0 0 .63-.45l.563-1.305.563 1.305a.75.75 0 0 0 .63.45l1.397.108-1.042.86Z" fill="currentColor"/></svg>
