<svg xmlns="http://www.w3.org/2000/svg" viewBox="0 0 16 14" width="16" height="14">
<g>
	<path fill="currentColor" d="M0.5,3.4h2.1C2.8,4.8,4,5.9,5.5,5.9s2.7-1.1,2.9-2.4h7.1c0.3,0,0.5-0.2,0.5-0.5s-0.2-0.5-0.5-0.5H8.4
		C8.2,1.1,7,0,5.5,0S2.8,1.1,2.6,2.4H0.5C0.2,2.4,0,2.7,0,2.9S0.2,3.4,0.5,3.4z M5.5,1c1.1,0,2,0.9,2,2s-0.9,2-2,2s-2-0.9-2-2
		S4.4,1,5.5,1z"/>
	<path fill="currentColor" d="M15.5,10.6h-1.2c-0.2-1.4-1.5-2.4-2.9-2.4s-2.7,1.1-2.9,2.4H0.5c-0.3,0-0.5,0.2-0.5,0.5s0.2,0.5,0.5,0.5h7.9
		c0.2,1.4,1.5,2.4,2.9,2.4s2.7-1.1,2.9-2.4h1.2c0.3,0,0.5-0.2,0.5-0.5S15.8,10.6,15.5,10.6z M11.3,13c-1.1,0-2-0.9-2-2s0.9-2,2-2
		c1.1,0,2,0.9,2,2S12.4,13,11.3,13z"/>
</g>
</svg>
