<svg xmlns="http://www.w3.org/2000/svg" viewBox="0 0 24 24" fill="none"><path d="M22.593 13.224a2.282 2.282 0 0 0-1.744-.447C22.609 11 23.5 9.232 23.5 7.5c0-2.482-1.996-4.5-4.45-4.5a4.46 4.46 0 0 0-3.425 1.57A4.461 4.461 0 0 0 12.199 3C9.746 3 7.75 5.018 7.75 7.5c0 1.031.304 2.033.943 3.094a2.988 2.988 0 0 0-1.383.787L5.19 13.5H2.5A1.5 1.5 0 0 0 1 15v3.75a1.5 1.5 0 0 0 1.5 1.5h9.75a.749.749 0 0 0 .182-.023l6-1.5a.653.653 0 0 0 .111-.037l3.645-1.55.04-.02a2.306 2.306 0 0 0 .37-3.896h-.005ZM12.2 4.5a2.92 2.92 0 0 1 2.732 1.781.75.75 0 0 0 1.388 0A2.92 2.92 0 0 1 19.05 4.5C20.649 4.5 22 5.873 22 7.5c0 1.829-1.48 3.898-4.28 5.99l-1.04.24a2.625 2.625 0 0 0-2.555-3.23h-3.686c-.81-1.091-1.189-2.051-1.189-3 0-1.627 1.35-3 2.95-3ZM2.5 15h2.25v3.75H2.5V15Zm19.072.77-3.563 1.517-5.853 1.463H6.25v-4.19l2.122-2.12a1.486 1.486 0 0 1 1.06-.44h4.693a1.125 1.125 0 1 1 0 2.25H11.5a.75.75 0 1 0 0 1.5h3a.782.782 0 0 0 .168-.019l6.281-1.444.03-.008a.807.807 0 0 1 .59 1.49h.003Z" fill="currentColor"/></svg>
