<svg xmlns="http://www.w3.org/2000/svg" viewBox="0 0 24 24" fill="none"><path d="M21 12.25a.75.75 0 0 1-.75.75H12a.75.75 0 1 1 0-1.5h8.25a.75.75 0 0 1 .75.75ZM12 7h8.25a.75.75 0 1 0 0-1.5H12A.75.75 0 1 0 12 7Zm8.25 10.5H12a.75.75 0 1 0 0 1.5h8.25a.75.75 0 1 0 0-1.5ZM7.72 4.22 5.25 6.69l-.969-.97A.75.75 0 1 0 3.22 6.78l1.5 1.5a.75.75 0 0 0 1.061 0l3-3A.75.75 0 1 0 7.72 4.22Zm0 6-2.47 2.47-.969-.97A.75.75 0 0 0 3.22 12.78l1.5 1.5a.748.748 0 0 0 1.061 0l3-3A.75.75 0 1 0 7.72 10.22Zm0 6-2.47 2.47-.969-.97A.75.75 0 1 0 3.22 18.78l1.5 1.5a.748.748 0 0 0 1.061 0l3-3A.75.75 0 1 0 7.72 16.22Z" fill="currentColor"/></svg>
