<svg xmlns="http://www.w3.org/2000/svg" width="24" height="25" viewBox="0 0 24 25" fill="none"><path fill="currentColor" d="M12.25 7a3.75 3.75 0 1 0 0 7.5 3.75 3.75 0 0 0 0-7.5Zm0 6a2.25 2.25 0 1 1 0-4.5 2.25 2.25 0 0 1 0 4.5Zm0-10.5A8.26 8.26 0 0 0 4 10.75c0 2.944 1.36 6.064 3.938 9.023a23.837 23.837 0 0 0 3.885 3.591.75.75 0 0 0 .861 0 23.835 23.835 0 0 0 3.879-3.59c2.573-2.96 3.937-6.08 3.937-9.024a8.26 8.26 0 0 0-8.25-8.25Zm0 19.313C10.7 20.593 5.5 16.117 5.5 10.75a6.75 6.75 0 0 1 13.5 0c0 5.365-5.2 9.844-6.75 11.063Z"/></svg>
