<svg xmlns="http://www.w3.org/2000/svg" viewBox="0 0 24 24" fill="none"><path d="M22.25 11.999a4.504 4.504 0 0 0-4.5-4.5h-3.731c-.273-.016-5.027-.35-9.554-4.148A1.5 1.5 0 0 0 2 4.5v15a1.5 1.5 0 0 0 2.465 1.148c3.54-2.97 7.218-3.821 8.785-4.06v2.975a1.5 1.5 0 0 0 .668 1.25l1.03.686a1.5 1.5 0 0 0 2.286-.874l1.104-4.159A4.506 4.506 0 0 0 22.25 12ZM3.5 19.492V4.5c4.013 3.366 8.122 4.219 9.75 4.429v6.138c-1.627.214-5.734 1.064-9.75 4.426Zm12.281.75v.01l-1.031-.687V16.5h2.025l-.994 3.743ZM17.75 15h-3v-6h3a3 3 0 0 1 0 6Z" fill="currentColor"/></svg>
