<svg xmlns="http://www.w3.org/2000/svg" width="24" height="25" viewBox="0 0 24 25" fill="none"><path fill="currentColor" d="M14.275 4.806a.75.75 0 0 1 .92-.53 8.083 8.083 0 0 1 5.78 5.78.752.752 0 0 1-.725.944.75.75 0 0 1-.725-.557 6.595 6.595 0 0 0-4.718-4.718.75.75 0 0 1-.532-.92Zm-.218 3.919c1.293.345 2.123 1.175 2.468 2.468a.75.75 0 1 0 1.45-.387c-.48-1.796-1.735-3.05-3.53-3.53a.75.75 0 0 0-.388 1.449Zm7.682 8.939A5.275 5.275 0 0 1 16.5 22.25C9.056 22.25 3 16.194 3 8.75A5.274 5.274 0 0 1 7.586 3.51a1.5 1.5 0 0 1 1.558.893l1.98 4.42v.011a1.5 1.5 0 0 1-.119 1.415 1.044 1.044 0 0 1-.053.072L9 12.636c.702 1.427 2.195 2.906 3.64 3.61l2.282-1.941a1.501 1.501 0 0 1 1.492-.184l.013.005 4.416 1.98a1.5 1.5 0 0 1 .896 1.558Zm-1.489-.188h-.01l-4.407-1.973-2.282 1.941a.803.803 0 0 1-.07.053 1.501 1.501 0 0 1-1.476.107c-1.756-.849-3.507-2.586-4.356-4.323a1.5 1.5 0 0 1 .094-1.472.574.574 0 0 1 .053-.072L9.75 9.42 7.781 5.014v-.011A3.769 3.769 0 0 0 4.5 8.75a12.013 12.013 0 0 0 12 12 3.77 3.77 0 0 0 3.75-3.275v.001Z"/></svg>
