<svg xmlns="http://www.w3.org/2000/svg" viewBox="0 0 24 24" fill="none"><path d="M18.75 13.25h-7.19l.22-.22 1.88-1.88c.76.382 1.597.586 2.447.596a4.647 4.647 0 0 0 2.427-.677c2.224-1.347 3.416-4.463 3.188-8.337a.75.75 0 0 0-.705-.705c-3.874-.226-6.99.964-8.336 3.188-.878 1.448-.9 3.198-.082 4.875l-1.349 1.349-1.145-1.145c.563-1.242.522-2.53-.13-3.607C8.956 5 6.62 4.1 3.725 4.27a.75.75 0 0 0-.704.704c-.171 2.894.729 5.23 2.417 6.25a3.582 3.582 0 0 0 1.875.525c.6-.006 1.192-.14 1.736-.393l1.14 1.143-.75.75H5.25a.75.75 0 0 0 0 1.5h.9l1.238 5.576A1.491 1.491 0 0 0 8.852 21.5h6.297a1.492 1.492 0 0 0 1.464-1.174l1.239-5.576h.898a.75.75 0 0 0 0-1.5Zm-4.781-7.258c.98-1.618 3.304-2.531 6.281-2.49.038 2.981-.873 5.304-2.49 6.28-1.08.657-2.382.614-3.683-.11-.725-1.297-.764-2.6-.108-3.68ZM8.635 9.886c-.862.462-1.716.483-2.421.056-1.078-.654-1.7-2.194-1.714-4.192 1.998.014 3.54.636 4.192 1.714.427.705.402 1.56-.057 2.422ZM15.15 20H8.852l-1.164-5.25h8.625L15.149 20Z" fill="currentColor"/></svg>
