<svg xmlns="http://www.w3.org/2000/svg" width="56" height="56" fill="none"><path fill="currentcolor" d="M50.715 10.313a3.5 3.5 0 0 0-3.281-3.28c-2.752-.165-9.785.087-15.621 5.92l-1.04 1.053H18.015a3.481 3.481 0 0 0-2.485 1.024l-7.503 7.507a3.5 3.5 0 0 0 1.984 5.942l8.415 1.174 9.671 9.671 1.175 8.42a3.487 3.487 0 0 0 2.358 2.826 3.525 3.525 0 0 0 2.454-.083 3.48 3.48 0 0 0 1.134-.76l7.507-7.502a3.48 3.48 0 0 0 1.024-2.485V26.98l1.043-1.043c5.837-5.837 6.088-12.87 5.924-15.624Zm-32.7 7.193h9.259l-8.647 8.645-8.13-1.133 7.517-7.512Zm16.276-2.067a16.767 16.767 0 0 1 12.93-4.915 16.727 16.727 0 0 1-4.904 12.94L29.747 36.03l-8.023-8.024 12.567-12.567Zm5.957 24.3-7.51 7.517-1.135-8.13 8.645-8.646v9.26Zm-16.223 2.079c-.984 2.157-4.276 7.188-13.527 7.188a1.75 1.75 0 0 1-1.75-1.75c0-9.25 5.031-12.543 7.188-13.53a1.75 1.75 0 1 1 1.453 3.185c-1.407.641-4.511 2.704-5.058 8.512 5.808-.547 7.875-3.651 8.512-5.058a1.75 1.75 0 0 1 3.184 1.453h-.002Z"/></svg>
