<svg xmlns="http://www.w3.org/2000/svg" viewBox="0 0 24 24" fill="none"><path d="M18.677 3.874A9.697 9.697 0 0 0 11.824 1h-.074A9.75 9.75 0 0 0 2 10.75V16a2.25 2.25 0 0 0 2.25 2.25h1.5A2.25 2.25 0 0 0 8 16v-3.75A2.25 2.25 0 0 0 5.75 10H3.534a8.261 8.261 0 0 1 14.08-5.07A8.193 8.193 0 0 1 19.966 10H17.75a2.25 2.25 0 0 0-2.25 2.25V16a2.25 2.25 0 0 0 2.25 2.25H20a2.25 2.25 0 0 1-2.25 2.25H12.5a.75.75 0 1 0 0 1.5h5.25a3.75 3.75 0 0 0 3.75-3.75v-7.5a9.694 9.694 0 0 0-2.823-6.876ZM5.75 11.5a.75.75 0 0 1 .75.75V16a.75.75 0 0 1-.75.75h-1.5A.75.75 0 0 1 3.5 16v-4.5h2.25Zm12 5.25A.75.75 0 0 1 17 16v-3.75a.75.75 0 0 1 .75-.75H20v5.25h-2.25Z" fill="currentColor"/></svg>
