<svg xmlns="http://www.w3.org/2000/svg" fill="none" viewBox="0 0 18 16"><path fill="currentColor" d="m8.891 15.756 3.712-9.583h1.3l3.713 9.583H16.29l-.944-2.541H11.16l-.944 2.541H8.891Zm-6.575-2.451-.878-.879 4.144-4.152a10.842 10.842 0 0 1-1.371-1.73 12.093 12.093 0 0 1-1.07-2.038h1.325c.24.505.533 1.009.878 1.513.344.505.716.963 1.116 1.377.592-.597 1.152-1.323 1.68-2.176.527-.853.9-1.646 1.118-2.38H.385V1.59h5.464V.244H7.1V1.59h5.465v1.25h-2.04c-.27.936-.701 1.914-1.292 2.935C8.64 6.795 8.009 7.637 7.338 8.3l2.056 2.105-.472 1.284L6.46 9.165l-4.144 4.14Zm9.245-1.196h3.385l-1.693-4.547-1.692 4.547Z"/></svg>
