<svg xmlns="http://www.w3.org/2000/svg" width="170" height="24" viewBox="0 0 170 24" fill="none">
  <path d="M56.1709 5.76054C56.3967 5.817 56.5097 5.92993 56.5097 6.04285V7.39796C56.5097 7.62381 56.3967 7.68027 56.1709 7.68027H52.0491C50.9763 7.68027 50.4681 8.01905 50.4681 8.75307V8.97892C50.4681 9.54355 50.694 9.93879 51.4845 10.2211L54.7029 11.4633C56.3403 12.0844 57.1308 12.8749 57.1308 14.8511V15.3028C57.1308 17.7871 55.1546 18.5211 52.162 18.5211C50.8634 18.5211 49.5083 18.4082 47.8709 18.1824C47.645 18.1259 47.5885 18.013 47.5885 17.7871V16.4885C47.5885 16.2626 47.7015 16.2062 47.9273 16.2062H52.8396C53.8559 16.2062 54.4205 15.9238 54.4205 15.1898V15.0204C54.4205 14.2864 54.0818 13.9476 53.1784 13.6089L49.7906 12.3667C48.379 11.8585 47.7579 10.8987 47.7579 8.92245V8.52722C47.7579 6.04285 49.5647 5.30884 52.6137 5.30884C53.9688 5.42176 54.8158 5.47822 56.1709 5.76054Z" fill="#4D4D4F"/>
  <path d="M70.2866 5.47754C70.456 5.47754 70.5689 5.534 70.5689 5.75985V18.2381C70.5689 18.4075 70.456 18.5205 70.2866 18.5205H68.0846C67.9152 18.5205 67.8022 18.464 67.8022 18.2381V13.1565H62.0995V18.2381C62.0995 18.4075 61.9866 18.5205 61.8172 18.5205H59.6151C59.4458 18.5205 59.3328 18.464 59.3328 18.2381V5.75985C59.3328 5.59046 59.4458 5.47754 59.6151 5.47754H61.8172C61.9866 5.47754 62.0995 5.534 62.0995 5.75985V10.8415H67.8022V5.75985C67.8022 5.59046 67.9152 5.47754 68.0846 5.47754H70.2866Z" fill="#4D4D4F"/>
  <path d="M113.763 5.47754C113.932 5.47754 114.045 5.534 114.045 5.70339V7.5102C114.045 7.67959 113.932 7.73605 113.763 7.73605H107.552V10.898H113.198C113.368 10.898 113.481 10.9544 113.481 11.1238V12.8177C113.481 12.9871 113.368 13.0436 113.198 13.0436H107.552V16.0361H113.763C113.932 16.0361 114.045 16.0925 114.045 16.2619V18.0688C114.045 18.2381 113.932 18.2946 113.763 18.2946H105.124C104.955 18.2946 104.842 18.2381 104.842 18.0123V5.75985C104.842 5.59046 104.955 5.534 105.124 5.534H113.763V5.47754Z" fill="#4D4D4F"/>
  <path d="M122.458 5.47754H117.264C117.038 5.47754 116.981 5.534 116.981 5.70339V18.2946C116.981 18.464 117.038 18.5205 117.264 18.5205H122.458C126.524 18.5205 128.217 16.6572 128.217 12.0272C128.217 7.34081 126.524 5.47754 122.458 5.47754ZM122.458 16.3184H119.748V7.67959H122.345C124.547 7.67959 125.507 8.97823 125.507 11.9708C125.451 15.0198 124.547 16.3184 122.458 16.3184Z" fill="#4D4D4F"/>
  <path d="M133.299 5.47754C133.469 5.47754 133.581 5.534 133.581 5.75985V18.2381C133.581 18.4075 133.469 18.5205 133.299 18.5205H131.097C130.928 18.5205 130.815 18.464 130.815 18.2381V5.75985C130.815 5.59046 130.928 5.47754 131.097 5.47754H133.299Z" fill="#4D4D4F"/>
  <path d="M156.392 7.5102L159.441 18.2381C159.498 18.464 159.385 18.5205 159.216 18.5205H157.014C156.844 18.5205 156.844 18.464 156.788 18.2381L155.941 15.3585H150.972L150.125 18.2381C150.069 18.464 150.069 18.5205 149.899 18.5205H147.697C147.528 18.5205 147.415 18.464 147.471 18.2381L150.577 7.39728C151.085 5.59047 151.424 5.47754 153.456 5.47754C155.545 5.47754 155.884 5.70339 156.392 7.5102ZM153.005 8.18776L151.593 13.2129H155.32L153.908 8.18776C153.795 7.79252 153.795 7.67959 153.4 7.67959C153.118 7.73605 153.118 7.79252 153.005 8.18776Z" fill="#4D4D4F"/>
  <path d="M81.8615 16.3189C82.0309 16.3189 82.0873 16.3754 82.0873 16.5448L82.1438 18.2387C82.1438 18.4081 82.0873 18.4645 81.9179 18.4645C81.9179 18.4645 79.9417 18.5775 78.9254 18.5775C78.022 18.5775 77.1186 18.5775 76.1587 18.5775C75.2553 18.5775 74.5778 18.3516 74.1261 17.8999C73.6744 17.4482 73.4485 16.8271 73.4485 16.0931V5.7604C73.4485 5.59101 73.5614 5.53455 73.7308 5.53455H75.9329C76.1023 5.53455 76.2152 5.59101 76.2152 5.7604V15.4155C76.2152 15.6979 76.2717 15.9237 76.441 16.0931C76.6104 16.2625 76.8363 16.3189 77.1751 16.3189C77.8526 16.3189 81.4098 16.3189 81.8615 16.3189Z" fill="#4D4D4F"/>
  <path d="M169.718 16.3189C169.887 16.3189 169.944 16.3754 169.944 16.5448L170 18.2387C170 18.4081 169.944 18.4645 169.774 18.4645C169.774 18.4645 167.798 18.5775 166.782 18.5775C165.878 18.5775 164.975 18.5775 164.015 18.5775C163.112 18.5775 162.434 18.3516 161.982 17.8999C161.531 17.4482 161.305 16.8271 161.305 16.0931V5.7604C161.305 5.59101 161.418 5.53455 161.587 5.53455H163.789C163.958 5.53455 164.071 5.59101 164.071 5.7604V15.4155C164.071 15.6979 164.128 15.9237 164.297 16.0931C164.467 16.2625 164.692 16.3189 165.031 16.3189C165.709 16.3189 169.322 16.3189 169.718 16.3189Z" fill="#4D4D4F"/>
  <path d="M101.906 18.2381V5.75985C101.906 5.59046 101.849 5.47754 101.68 5.47754H99.5909C99.0262 5.47754 98.8004 5.59047 98.631 6.1551L95.3561 14.3422L92.1378 6.1551C91.9119 5.64693 91.6861 5.47754 91.1779 5.47754H89.0888C88.9194 5.47754 88.8629 5.59046 88.8629 5.75985V18.2381C88.8629 18.4075 88.9194 18.5205 89.0888 18.5205H91.4037C91.5731 18.5205 91.6296 18.464 91.6861 18.2381V13.6082C91.6861 12.7048 91.6861 12.0837 91.6861 11.5755L94.2269 17.8994C94.3398 18.0687 94.4527 18.1252 94.5657 18.1252H96.2031C96.3725 18.1252 96.4854 18.0687 96.5419 17.8994L99.1391 11.5191C99.1391 11.9708 99.0827 12.5919 99.0827 13.6082V18.2381C99.0827 18.4075 99.1956 18.5205 99.365 18.5205H101.68C101.849 18.5205 101.906 18.464 101.906 18.2381Z" fill="#4D4D4F"/>
  <path d="M145.326 5.64747C145.721 5.70394 145.777 5.92978 145.721 6.09917C145.608 6.49441 145.439 7.00258 145.382 7.39782C145.326 7.68013 145.213 7.7366 144.987 7.7366H141.938C139.566 7.7366 139.115 8.75292 139.115 12.0278C139.115 15.3026 139.51 16.3189 141.938 16.3189H145.1C145.326 16.3189 145.495 16.4319 145.439 16.7142C145.326 17.1094 145.156 17.6176 145.1 18.0128C145.043 18.2951 144.987 18.4081 144.705 18.4645C143.858 18.6339 143.519 18.6904 141.994 18.6904C137.59 18.6904 136.461 17.1659 136.461 12.0842C136.461 7.00258 137.59 5.47808 141.994 5.47808C143.406 5.42162 144.366 5.47808 145.326 5.64747Z" fill="#4D4D4F"/>
  <path d="M18.9619 8.13175C20.2041 9.76917 22.1803 10.842 24.3823 10.842H35.9007C36.4089 10.842 36.7477 10.3903 36.6348 9.88209C35.7314 7.2848 33.247 5.42153 30.2545 5.42153H21.164C18.9619 5.42153 16.9857 4.34873 15.7435 2.71131C14.5013 1.07389 12.5251 0.00109863 10.3231 0.00109863H1.11965C0.272709 0.00109863 -0.291918 0.904505 0.159785 1.63852L2.07952 4.8569C2.30537 5.19568 2.64415 5.42153 3.03939 5.42153H13.5979C15.7435 5.42153 17.7197 6.49432 18.9619 8.13175Z" fill="#00A796"/>
  <path d="M18.9619 15.8682C20.2041 14.2308 22.1803 13.158 24.3823 13.158H35.9007C36.4089 13.158 36.7477 13.6097 36.6348 14.1178C35.7314 16.7151 33.247 18.5784 30.2545 18.5784H21.164C18.9619 18.5784 16.9857 19.6512 15.7435 21.2886C14.5013 22.926 12.5251 23.9988 10.3231 23.9988H1.11965C0.272709 23.9988 -0.291918 23.0954 0.159785 22.3614L2.07952 19.143C2.30537 18.8042 2.64415 18.5784 3.03939 18.5784H13.5979C15.7435 18.5784 17.7197 17.5056 18.9619 15.8682Z" fill="#007CBE"/>
</svg>
